<?xml version="1.0" standalone="no"?>
<!DOCTYPE svg PUBLIC "-//W3C//DTD SVG 20010904//EN"
 "http://www.w3.org/TR/2001/REC-SVG-20010904/DTD/svg10.dtd">
<svg version="1.0" xmlns="http://www.w3.org/2000/svg"
 width="4096.000000pt" height="4096.000000pt" viewBox="0 0 4096.000000 4096.000000"
 preserveAspectRatio="xMidYMid meet">
<metadata>
Created by potrace 1.14, written by Peter Selinger 2001-2017
</metadata>
<g transform="translate(0.000000,4096.000000) scale(0.100000,-0.100000)"
fill="#000000" stroke="none">
<path d="M20437 30914 c-3 -2 -311 -17 -384 -18 -29 -1 -53 -3 -53 -6 0 -3
-24 -6 -53 -7 -55 -1 -148 -9 -232 -18 -27 -3 -70 -8 -95 -11 -25 -2 -61 -7
-80 -9 -19 -3 -60 -7 -90 -10 -30 -3 -66 -7 -80 -10 -14 -3 -47 -7 -75 -10
-27 -3 -61 -8 -75 -11 -14 -2 -36 -6 -50 -9 -13 -3 -39 -6 -57 -7 -18 -1 -33
-6 -33 -11 0 -4 -4 -6 -9 -2 -5 3 -29 1 -53 -4 -24 -5 -59 -12 -78 -15 -19 -3
-46 -8 -60 -11 -14 -3 -38 -7 -55 -9 -45 -6 -95 -16 -140 -27 -21 -6 -53 -12
-70 -14 -16 -2 -31 -4 -32 -5 -2 -2 -6 -3 -10 -4 -33 -8 -72 -17 -93 -22 -14
-3 -34 -7 -45 -9 -11 -3 -29 -7 -40 -9 -51 -11 -322 -78 -335 -84 -8 -3 -19
-7 -25 -7 -20 -3 -70 -18 -80 -24 -5 -3 -14 -6 -20 -7 -72 -12 -406 -119 -745
-239 -216 -76 -603 -239 -850 -358 -47 -23 -87 -42 -90 -42 -12 -2 -353 -179
-435 -225 -35 -20 -134 -75 -230 -128 -16 -9 -33 -21 -37 -27 -5 -7 -8 -7 -8
0 0 6 -6 3 -13 -5 -7 -8 -34 -26 -62 -40 -27 -14 -58 -33 -69 -42 -11 -10 -29
-21 -40 -24 -12 -4 -23 -10 -26 -13 -3 -4 -54 -37 -115 -75 -60 -38 -111 -73
-113 -77 -2 -5 -8 -9 -13 -9 -11 0 -193 -122 -197 -132 -2 -5 -8 -8 -13 -8 -6
0 -15 -5 -22 -10 -7 -6 -46 -35 -87 -65 -41 -29 -80 -59 -87 -64 -7 -6 -15
-11 -18 -11 -5 0 -68 -46 -101 -75 -7 -5 -24 -19 -40 -30 -15 -11 -33 -26 -40
-32 -7 -7 -15 -13 -19 -13 -6 0 -23 -13 -53 -41 -9 -8 -35 -29 -57 -45 -22
-16 -42 -31 -45 -34 -3 -3 -54 -46 -115 -95 -60 -49 -115 -94 -121 -100 -6 -5
-33 -29 -60 -52 -313 -266 -707 -654 -993 -978 -68 -77 -136 -153 -150 -170
-116 -132 -352 -433 -508 -650 -67 -93 -126 -175 -130 -181 -4 -5 -12 -17 -18
-26 -15 -23 -131 -199 -144 -217 -23 -32 -83 -126 -97 -151 -8 -14 -25 -41
-37 -60 -34 -55 -120 -197 -143 -238 -34 -60 -76 -135 -97 -172 -94 -164 -384
-741 -393 -780 -1 -5 -30 -69 -70 -157 -13 -28 -24 -54 -24 -56 0 -3 -10 -26
-22 -53 -12 -27 -23 -54 -24 -59 -1 -6 -11 -31 -21 -55 -11 -25 -28 -67 -38
-95 -10 -27 -22 -54 -27 -59 -4 -6 -8 -15 -8 -22 0 -6 -8 -29 -17 -50 -9 -22
-18 -43 -19 -49 -1 -5 -21 -62 -44 -125 -23 -63 -43 -119 -44 -125 -2 -5 -6
-17 -9 -25 -10 -24 -78 -233 -82 -254 -5 -21 -33 -112 -42 -136 -4 -8 -7 -18
-8 -22 -2 -5 -4 -11 -5 -15 -1 -5 -2 -11 -1 -15 0 -3 -8 -32 -19 -62 -10 -31
-17 -56 -15 -56 3 0 0 -12 -6 -27 -11 -29 -37 -121 -44 -157 -2 -12 -4 -21 -5
-21 -1 0 -3 -7 -5 -15 -1 -8 -8 -35 -15 -60 -13 -50 -19 -73 -25 -110 -2 -14
-11 -50 -19 -80 -8 -30 -17 -66 -19 -80 -3 -14 -16 -79 -30 -145 -14 -66 -29
-140 -32 -165 -4 -24 -8 -47 -10 -50 -2 -3 -6 -24 -9 -46 -4 -22 -9 -51 -11
-64 -3 -14 -8 -43 -10 -65 -3 -22 -7 -51 -10 -65 -13 -62 -16 -78 -21 -120 -3
-25 -7 -58 -11 -75 -3 -16 -6 -41 -7 -55 -2 -14 -4 -32 -4 -40 -2 -14 -89 -16
-770 -16 -747 0 -768 0 -794 -19 -20 -15 -27 -29 -28 -54 0 -31 149 -183 2425
-2459 2284 -2283 2428 -2425 2461 -2426 34 -1 125 88 2460 2423 1333 1333
2425 2430 2425 2438 1 7 2 19 3 26 4 22 -15 48 -43 60 -21 9 -415 12 -1569 12
-1483 -1 -1540 0 -1536 18 5 28 44 170 51 187 3 8 7 22 9 30 2 8 22 69 44 135
22 66 42 125 44 130 2 6 7 21 13 35 6 14 19 50 31 80 11 30 26 69 33 85 7 17
13 32 14 35 11 33 103 237 124 273 11 20 21 39 21 42 0 3 17 38 37 78 21 39
40 77 42 82 27 66 303 514 363 590 15 19 63 83 83 111 24 34 172 221 196 249
10 11 28 32 41 47 185 212 420 446 583 583 33 27 62 52 65 55 8 8 100 83 131
105 121 90 198 148 219 165 14 11 30 20 37 20 6 0 13 4 15 9 3 10 266 180 338
219 25 13 59 32 75 42 36 22 363 190 370 190 3 0 26 10 53 24 138 69 664 259
779 281 10 2 18 4 18 5 0 2 12 5 50 13 11 3 38 10 60 16 22 6 51 12 65 15 14
2 25 5 25 6 0 2 20 6 65 15 19 3 51 10 70 15 19 5 51 11 70 14 19 3 46 8 60
11 14 3 45 8 70 11 25 3 54 8 65 10 39 8 85 14 230 30 33 3 74 8 90 10 193 26
764 24 1000 -2 39 -5 89 -8 112 -9 24 0 43 -3 43 -6 0 -3 12 -6 28 -6 32 -1
82 -8 172 -24 36 -6 73 -11 82 -11 10 0 20 -3 23 -8 3 -5 12 -7 20 -4 8 3 29
1 47 -5 18 -5 49 -12 69 -15 20 -3 42 -8 50 -10 8 -3 25 -8 39 -10 31 -6 48
-10 130 -31 36 -9 72 -18 80 -19 8 -2 42 -11 75 -21 33 -10 65 -20 70 -21 88
-16 625 -217 633 -236 2 -5 9 -8 16 -8 7 0 32 -9 57 -21 144 -68 237 -115 262
-132 15 -10 27 -15 27 -11 0 3 6 2 13 -4 14 -12 111 -67 147 -85 14 -6 27 -14
30 -17 3 -3 28 -19 55 -35 72 -41 265 -168 370 -243 82 -59 263 -198 275 -212
3 -3 19 -16 35 -29 28 -21 110 -94 215 -190 43 -39 51 -43 85 -43 8 0 19 0 23
1 4 0 602 595 1327 1321 726 726 1323 1320 1326 1320 4 0 735 -728 1625 -1618
1507 -1507 1621 -1619 1651 -1617 39 2 60 18 67 53 7 31 2 48 -52 192 -22 58
-46 121 -53 140 -7 19 -18 49 -25 65 -6 17 -24 62 -39 100 -23 57 -107 257
-145 340 -5 11 -20 45 -33 75 -14 30 -54 116 -90 190 -35 74 -64 139 -65 144
0 5 -4 12 -9 15 -4 3 -29 49 -56 101 -115 229 -306 568 -347 617 -6 7 -9 14
-8 15 2 4 -9 21 -110 181 -45 71 -82 132 -82 138 0 5 -5 9 -10 9 -6 0 -13 8
-17 18 -10 29 -222 334 -235 340 -5 2 -8 10 -8 17 0 7 -4 15 -8 17 -5 2 -23
26 -42 53 -18 28 -37 52 -40 55 -3 3 -35 43 -70 90 -74 99 -123 163 -130 170
-3 3 -34 41 -69 85 -36 44 -69 85 -75 90 -6 6 -37 42 -68 80 -31 39 -69 84
-83 100 -48 54 -149 168 -210 234 -72 79 -582 591 -588 591 -3 0 -23 17 -45
38 -21 20 -65 60 -96 87 -32 28 -68 59 -80 70 -37 33 -153 132 -193 165 -10 8
-43 35 -73 60 -30 25 -62 50 -70 57 -8 6 -40 31 -70 56 -30 24 -93 72 -140
108 -47 35 -86 67 -88 71 -2 5 -8 8 -13 8 -5 0 -46 28 -92 63 -45 34 -102 75
-127 92 -25 16 -47 32 -50 35 -3 3 -52 37 -110 75 -58 39 -106 73 -108 78 -2
4 -8 7 -14 7 -6 0 -26 11 -44 25 -18 14 -36 25 -39 25 -4 0 -25 13 -48 29 -62
44 -307 191 -318 191 -5 0 -9 4 -9 8 0 4 -12 13 -27 20 -27 11 -78 39 -178 97
-192 110 -817 418 -870 429 -5 1 -14 4 -20 8 -5 3 -73 31 -150 63 -77 32 -153
63 -170 70 -128 53 -625 228 -625 219 0 -3 -9 0 -19 6 -17 9 -232 76 -301 94
-14 4 -50 13 -80 22 -30 8 -62 17 -70 19 -8 2 -40 10 -70 19 -30 8 -64 17 -75
20 -168 41 -387 91 -439 100 -16 3 -52 10 -80 15 -75 15 -108 21 -141 27 -16
3 -61 11 -100 19 -64 12 -116 21 -185 30 -14 1 -56 8 -95 14 -38 7 -90 14
-115 17 -25 3 -61 7 -80 9 -19 2 -57 7 -85 10 -27 3 -61 7 -75 10 -34 6 -132
16 -205 20 -33 2 -60 4 -60 5 0 1 -27 3 -60 5 -33 1 -98 6 -145 9 -47 4 -119
9 -160 12 -72 5 -818 13 -823 8z"/>
<path d="M27159 24069 c-29 -17 -4842 -4835 -4848 -4853 -12 -31 0 -66 27 -84
23 -15 150 -16 1571 -17 1003 0 1545 -4 1544 -10 -8 -53 -17 -88 -52 -200 -57
-186 -121 -368 -161 -460 -9 -22 -23 -57 -29 -77 -7 -21 -17 -40 -22 -43 -5
-4 -9 -15 -9 -26 0 -10 -4 -19 -8 -19 -5 0 -9 -6 -9 -12 0 -7 -17 -49 -38 -93
-22 -44 -40 -86 -41 -94 -2 -8 -6 -17 -11 -20 -4 -3 -28 -46 -52 -96 -24 -49
-53 -102 -63 -117 -11 -16 -16 -28 -12 -28 4 0 0 -8 -8 -17 -8 -10 -37 -56
-63 -103 -66 -114 -155 -253 -169 -262 -6 -4 -7 -8 -3 -8 8 0 -33 -59 -60 -88
-7 -7 -13 -17 -13 -22 0 -5 -6 -15 -12 -22 -7 -7 -40 -49 -72 -93 -55 -74
-173 -223 -186 -235 -3 -3 -25 -30 -50 -60 -87 -105 -322 -347 -456 -470 -133
-121 -155 -140 -159 -140 -2 0 -16 -11 -31 -25 -15 -14 -41 -36 -57 -48 -16
-12 -34 -27 -40 -32 -44 -38 -283 -215 -292 -215 -3 0 -13 -6 -20 -12 -29 -26
-44 -38 -49 -38 -2 0 -38 -22 -79 -49 -104 -69 -294 -181 -306 -181 -6 0 -11
-4 -11 -10 0 -5 -9 -10 -19 -10 -11 0 -21 -4 -23 -9 -3 -9 -279 -147 -378
-190 -30 -12 -68 -29 -85 -36 -139 -60 -489 -186 -555 -200 -8 -2 -42 -11 -75
-21 -33 -10 -63 -19 -67 -20 -5 -1 -9 -2 -10 -4 -2 -1 -12 -3 -23 -5 -11 -1
-49 -10 -85 -19 -36 -9 -78 -19 -95 -22 -16 -3 -57 -12 -89 -19 -33 -8 -63
-12 -68 -9 -4 3 -8 1 -8 -4 0 -5 -6 -9 -12 -10 -32 -2 -88 -11 -143 -21 -62
-11 -127 -21 -180 -26 -16 -2 -50 -6 -75 -8 -54 -7 -166 -17 -235 -23 -27 -3
-120 -6 -207 -8 -86 -2 -160 -6 -166 -10 -5 -3 -12 -3 -15 1 -4 3 -77 7 -164
9 -86 1 -180 5 -207 8 -28 3 -78 8 -111 11 -33 3 -80 7 -105 10 -88 10 -135
15 -160 19 -14 2 -45 6 -70 10 -25 4 -58 9 -75 13 -16 3 -40 8 -52 9 -50 8
-72 13 -168 33 -55 12 -111 24 -123 27 -13 3 -49 12 -80 20 -32 8 -64 17 -73
19 -59 13 -374 112 -394 124 -5 3 -18 7 -27 8 -38 6 -386 151 -490 205 -32 16
-58 26 -58 22 0 -4 -8 0 -17 8 -10 8 -54 33 -99 56 -44 22 -96 49 -115 60 -19
10 -61 34 -94 53 -33 18 -61 37 -63 41 -2 4 -8 8 -14 8 -13 0 -292 180 -296
191 -2 5 -8 9 -14 9 -11 0 -88 57 -100 75 -4 5 -8 6 -8 1 0 -4 -17 6 -37 23
-21 18 -42 35 -48 39 -18 13 -99 77 -120 94 -11 9 -40 33 -65 53 -70 58 -150
127 -184 160 -94 90 -113 97 -160 61 -17 -13 -616 -609 -1331 -1325 -715 -715
-1303 -1301 -1306 -1301 -4 0 -734 727 -1622 1615 -1751 1751 -1648 1655
-1703 1600 -13 -13 -24 -33 -24 -43 0 -18 24 -91 75 -227 14 -38 30 -81 34
-95 5 -14 20 -54 35 -90 33 -80 41 -98 54 -130 14 -34 61 -147 79 -190 9 -19
31 -68 49 -107 19 -40 34 -75 34 -78 0 -3 54 -116 120 -250 66 -135 120 -249
120 -254 0 -5 4 -11 8 -13 5 -2 34 -50 64 -108 31 -58 79 -145 107 -193 28
-49 51 -91 51 -93 0 -3 14 -25 30 -49 17 -24 30 -46 30 -49 0 -9 84 -141 92
-144 5 -2 8 -8 8 -14 0 -5 14 -29 30 -53 17 -24 30 -46 30 -50 0 -8 43 -69 53
-73 4 -2 7 -8 7 -14 0 -6 20 -39 45 -75 25 -35 45 -66 45 -69 0 -3 6 -12 12
-19 30 -33 38 -45 38 -54 0 -5 3 -11 8 -13 4 -1 25 -30 47 -63 22 -33 44 -64
48 -70 7 -9 59 -80 105 -143 52 -71 88 -117 95 -120 4 -2 7 -8 7 -14 0 -5 6
-15 13 -22 6 -7 23 -27 37 -45 43 -56 114 -146 120 -151 3 -3 17 -21 31 -40
15 -19 39 -48 54 -65 14 -16 38 -46 53 -65 15 -19 34 -41 42 -50 8 -9 35 -40
60 -69 25 -29 59 -68 75 -85 17 -18 66 -73 110 -122 124 -139 683 -694 699
-694 1 0 25 -21 53 -47 28 -27 70 -65 94 -85 24 -21 58 -49 74 -63 17 -14 47
-40 69 -58 21 -18 43 -37 50 -42 23 -21 264 -213 346 -275 47 -36 86 -68 88
-72 2 -5 8 -8 14 -8 6 0 22 -10 37 -22 38 -32 59 -47 191 -139 63 -44 123 -86
133 -94 9 -8 19 -15 22 -15 2 0 37 -22 77 -49 104 -70 270 -176 288 -184 8 -4
27 -15 42 -25 25 -16 122 -74 163 -98 11 -6 36 -21 55 -32 19 -12 42 -25 50
-29 8 -4 35 -19 60 -33 122 -71 501 -265 675 -345 196 -91 298 -135 311 -135
8 0 14 -4 14 -10 0 -5 8 -10 18 -10 9 0 31 -7 47 -16 17 -9 59 -27 95 -40 36
-13 74 -28 85 -34 11 -5 76 -30 145 -55 69 -26 141 -53 160 -61 19 -8 45 -16
57 -19 12 -2 37 -10 55 -18 34 -15 210 -75 240 -82 9 -2 68 -20 130 -39 62
-20 122 -37 133 -39 11 -1 25 -5 30 -9 10 -6 253 -72 330 -89 22 -5 67 -15
100 -24 33 -9 69 -17 80 -19 11 -1 29 -6 40 -9 11 -3 31 -8 45 -11 14 -3 36
-7 50 -10 29 -7 65 -14 100 -20 14 -3 36 -8 50 -11 74 -17 119 -26 155 -29 22
-2 58 -8 80 -14 22 -6 63 -14 90 -18 60 -9 69 -10 75 -13 3 -1 21 -4 40 -5 19
-2 49 -6 65 -9 42 -8 247 -35 265 -35 8 0 33 -3 55 -6 84 -13 102 -15 170 -22
124 -11 168 -14 250 -19 44 -3 105 -7 135 -10 276 -26 943 -26 1320 0 41 3
101 7 132 10 32 2 63 7 69 11 8 5 9 3 4 -6 -5 -8 -4 -11 2 -7 6 4 35 9 64 12
106 9 174 17 199 21 14 2 50 6 80 9 30 2 71 7 90 10 19 3 55 8 80 11 25 3 56
7 70 9 14 2 72 11 130 20 58 9 116 18 130 20 14 2 50 8 80 14 52 10 74 14 145
26 17 3 50 10 75 16 25 5 59 12 75 14 17 2 30 4 30 5 0 1 7 3 15 5 13 2 77 16
190 41 14 3 34 7 45 9 52 10 299 77 315 85 9 5 20 7 22 5 3 -3 24 1 47 9 23 9
43 15 46 16 3 0 6 0 8 1 1 0 10 2 21 4 17 3 138 39 176 53 8 3 20 6 25 7 19 5
120 38 185 60 36 13 67 23 70 23 3 0 14 4 25 7 51 17 82 28 100 35 11 4 54 20
95 35 111 40 310 115 347 131 18 8 51 21 74 30 23 8 47 18 53 23 6 5 22 12 36
16 14 4 48 18 75 30 79 35 110 48 115 50 51 16 633 305 642 319 4 6 8 7 8 3 0
-5 12 0 28 11 15 10 43 26 62 36 19 9 42 21 50 26 86 51 120 69 120 62 0 -4 4
-2 8 4 9 13 129 84 143 84 5 0 9 5 9 10 0 6 4 10 9 10 5 0 43 21 85 48 42 26
84 52 94 57 9 6 50 31 90 58 40 26 77 47 81 47 5 0 11 4 13 8 2 4 60 46 131
92 70 46 127 88 127 92 0 4 5 8 10 8 17 0 335 235 535 395 109 88 125 101 194
159 25 22 54 47 65 55 42 36 103 89 146 127 25 22 58 52 73 65 16 13 61 54
100 91 40 38 75 68 80 68 4 0 7 7 7 15 0 8 4 15 10 15 21 0 451 443 640 659
30 35 67 77 83 93 15 16 27 31 27 35 0 3 6 11 14 17 7 6 44 49 82 96 38 47 74
91 81 98 7 7 34 41 60 75 26 34 52 67 58 73 5 7 19 24 30 40 11 15 32 43 48
63 55 72 66 87 116 156 28 39 56 78 63 87 7 9 19 25 25 35 7 10 47 66 88 125
41 59 75 111 75 117 0 5 3 11 8 13 6 3 52 68 77 110 5 10 51 82 100 160 105
167 110 175 127 208 7 14 15 27 18 30 3 3 19 31 35 63 17 32 38 67 48 78 10
10 15 19 11 19 -3 0 2 12 11 27 36 55 264 493 266 510 0 5 4 13 9 18 14 17
155 324 159 347 1 4 13 29 26 54 14 26 25 53 25 60 0 8 5 14 12 14 6 0 9 3 6
6 -5 5 11 50 42 119 11 23 32 76 36 90 5 18 106 279 119 310 7 17 18 46 23 65
6 19 25 76 42 125 29 82 136 420 145 455 2 8 11 40 20 70 9 30 18 64 20 74 2
10 9 33 14 50 6 17 13 42 15 56 11 53 37 156 46 180 5 14 11 39 14 55 3 17 7
39 10 50 11 49 28 121 31 136 2 9 13 59 24 110 11 52 23 110 26 129 3 19 12
69 20 110 9 41 17 89 20 105 5 34 12 74 25 155 10 55 15 91 24 165 3 22 8 58
11 80 l7 41 754 -1 c415 0 767 3 782 7 30 8 52 42 52 80 0 14 -756 777 -2428
2448 -2523 2523 -2446 2448 -2493 2419z"/>
</g>
</svg>
