<svg width="32" height="32" viewBox="0 0 32 32" fill="none" xmlns="http://www.w3.org/2000/svg">
<path d="M30.6666 7.99992V2.66659C30.6666 2.31296 30.5262 1.97382 30.2761 1.72378C30.0261 1.47373 29.6869 1.33325 29.3333 1.33325H2.66665C2.31302 1.33325 1.97388 1.47373 1.72384 1.72378C1.47379 1.97382 1.33331 2.31296 1.33331 2.66659V7.99992H30.6666Z" fill="#333333"/>
<path d="M1.33331 10.6665V29.3332C1.33331 29.6868 1.47379 30.0259 1.72384 30.276C1.97388 30.526 2.31302 30.6665 2.66665 30.6665H9.33331V10.6665H1.33331Z" fill="#0157FF"/>
<path d="M12 30.6665H29.3333C29.687 30.6665 30.0261 30.526 30.2761 30.276C30.5262 30.0259 30.6667 29.6868 30.6667 29.3332V10.6665H12V30.6665Z" fill="#FFA901"/>
</svg>
