<svg width="32" height="32" viewBox="0 0 32 32" fill="none" xmlns="http://www.w3.org/2000/svg">
<path d="M12 13.3333H2.66665C2.31302 13.3333 1.97388 13.1928 1.72384 12.9427C1.47379 12.6927 1.33331 12.3535 1.33331 11.9999V2.66659C1.33331 2.31296 1.47379 1.97382 1.72384 1.72378C1.97388 1.47373 2.31302 1.33325 2.66665 1.33325H12C12.3536 1.33325 12.6927 1.47373 12.9428 1.72378C13.1928 1.97382 13.3333 2.31296 13.3333 2.66659V11.9999C13.3333 12.3535 13.1928 12.6927 12.9428 12.9427C12.6927 13.1928 12.3536 13.3333 12 13.3333Z" fill="#FFA901"/>
<path d="M12 30.6665H2.66665C2.31302 30.6665 1.97388 30.526 1.72384 30.276C1.47379 30.0259 1.33331 29.6868 1.33331 29.3332V19.9998C1.33331 19.6462 1.47379 19.3071 1.72384 19.057C1.97388 18.807 2.31302 18.6665 2.66665 18.6665H12C12.3536 18.6665 12.6927 18.807 12.9428 19.057C13.1928 19.3071 13.3333 19.6462 13.3333 19.9998V29.3332C13.3333 29.6868 13.1928 30.0259 12.9428 30.276C12.6927 30.526 12.3536 30.6665 12 30.6665Z" fill="#FFA901"/>
<path d="M17.3333 2.6665H30.6666V5.33317H17.3333V2.6665Z" fill="#333333"/>
<path d="M30.6666 20H17.3333V22.6667H30.6666V20Z" fill="#333333"/>
<path d="M30.6666 26.6665H17.3333V29.3332H30.6666V26.6665Z" fill="#0157FF"/>
<path d="M30.6666 9.33325H17.3333V11.9999H30.6666V9.33325Z" fill="#0157FF"/>
</svg>
