<?xml version="1.0" encoding="UTF-8"?>
<!DOCTYPE svg PUBLIC "-//W3C//DTD SVG 1.1//EN" "http://www.w3.org/Graphics/SVG/1.1/DTD/svg11.dtd">
<!-- Creator: CorelDRAW 2019 (64-Bit) -->
<svg xmlns="http://www.w3.org/2000/svg" xml:space="preserve" width="1016mm" height="423.333mm" version="1.1" style="shape-rendering:geometricPrecision; text-rendering:geometricPrecision; image-rendering:optimizeQuality; fill-rule:evenodd; clip-rule:evenodd"
viewBox="0 0 101599.98 42333.32"
 xmlns:xlink="http://www.w3.org/1999/xlink">
 <defs>
  <style type="text/css">
   <![CDATA[
    .fil0 {fill:none}
    .fil2 {fill:white;fill-rule:nonzero}
    .fil1 {fill:#FFA901;fill-rule:nonzero}
   ]]>
  </style>
 </defs>
 <g id="Layer_x0020_1">
  <metadata id="CorelCorpID_0Corel-Layer"/>
  <rect class="fil0" x="-0.01" y="-0.01" width="101599.99" height="42333.33"/>
  <g id="_2613812810896">
   <path class="fil1" d="M87662.66 17716.81c-359.64,-299.66 -753.51,-526.58 -1181.64,-676.44 -440.96,-149.81 -911.88,-226.87 -1404.19,-226.87 -920.45,0 -1695.34,299.67 -2333.21,890.49 -642.17,595.07 -963.28,1331.39 -963.28,2209.05 0,684.96 137.03,1301.48 410.99,1845.15 269.71,543.72 667.88,971.85 1194.46,1288.66 509.45,329.63 1095.96,492.31 1768.1,492.31 984.68,0 1828.06,-316.8 2534.42,-941.84l2191.97 2782.74c-316.81,333.93 -762.07,633.6 -1327.19,890.48 -577.94,261.14 -1173.02,453.79 -1780.92,577.94 -612.21,124.16 -1177.32,188.39 -1695.34,188.39 -1455.6,0 -2739.95,-303.98 -3848.73,-916.19 -1113.1,-616.47 -1965.05,-1429.89 -2560.13,-2431.66 -595.08,-1018.95 -890.48,-2110.6 -890.48,-3275.1 0,-1061.73 179.82,-2024.97 539.41,-2885.49 368.21,-877.61 873.35,-1631.12 1515.52,-2256.15 637.91,-612.21 1412.81,-1091.7 2320.38,-1442.73 903.31,-342.5 1879.43,-513.76 2924.03,-513.76 851.95,0 1686.77,132.73 2495.89,402.43 822,274.02 1541.23,663.57 2170.57,1164.45l-2080.63 2834.14z"/>
   <path class="fil1" d="M71608.37 16963.31c1018.9,42.84 1528.35,753.5 1528.35,2136.3l0 7586.19 4015.73 0 0 -7586.19c0,-3656.08 -1849.46,-5574.03 -5544.08,-5758.11l-226.91 0c-3694.62,184.08 -5544.08,2102.03 -5544.08,5758.11l0 7586.19 4015.73 0 0 -7586.19c0,-1382.8 509.45,-2093.46 1528.35,-2136.3l226.91 0z"/>
   <path class="fil1" d="M60280.43 28167.05l-12.83 0 0 124.16c-8.56,25.7 -12.87,47.09 -12.87,64.23 -8.52,115.59 -29.96,209.78 -64.19,286.84l-21.39 89.89 -25.7 85.62 -25.71 64.23 -12.82 34.27c-192.65,462.36 -479.49,821.95 -864.78,1078.83 -411,286.84 -860.53,428.13 -1357.15,428.13 -633.61,0 -1181.59,-218.35 -1639.68,-650.74 -462.35,-436.7 -710.66,-971.85 -740.63,-1605.46l-3626.12 2119.17c166.95,569.42 603.65,1211.59 1305.74,1930.83 1078.87,1070.25 2513.03,1622.54 4302.57,1656.76l663.57 0c800.55,0 1601.15,-145.55 2393.13,-428.08 881.92,-316.81 1571.19,-727.8 2072.07,-1228.68 1104.57,-1121.67 1656.81,-2457.42 1656.81,-4015.73l0 -14346.11 -4015.72 12.87 0 7196.58c0,753.5 -175.51,1327.14 -526.54,1721 -368.21,393.86 -856.26,590.82 -1468.47,590.82 -633.61,0 -1125.92,-192.65 -1476.95,-577.94 -355.38,-393.87 -530.89,-971.86 -530.89,-1733.88l0 -7209.45 -4011.42 0 0 7487.73c0,4186.93 1977.88,6074.92 5933.68,5655.4 642.17,-55.66 1344.27,-239.74 2106.29,-552.29l0 1721z"/>
   <path class="fil1" d="M48712.79 13589.81c-518.02,-492.36 -971.8,-839.13 -1365.66,-1040.34 -419.57,-218.35 -903.32,-325.37 -1455.6,-325.37 -406.69,0 -791.99,128.46 -1151.63,389.6 -376.72,256.88 -565.11,599.33 -565.11,1027.47 0,603.64 411,1078.82 1228.68,1429.89 834.82,359.64 1691.09,706.41 2573,1040.34 886.18,351.03 1652.51,907.58 2307.51,1669.65 642.17,770.58 963.28,1896.51 963.28,3386.37 0,1905.08 -573.68,3369.25 -1716.73,4388.15 -1138.8,1031.77 -2590.09,1545.48 -4353.93,1545.48 -1018.95,0 -2007.88,-175.51 -2958.29,-526.58 -963.24,-351.03 -1806.63,-877.61 -2534.43,-1584.02l2358.92 -3360.67c753.45,954.67 1742.44,1429.89 2971.12,1429.89 492.31,0 967.54,-136.98 1417.02,-410.99 445.27,-269.71 663.62,-663.57 663.62,-1181.59 0,-607.9 -411,-1095.96 -1241.56,-1455.6 -368.16,-158.37 -791.99,-338.19 -1275.78,-539.41l-655 -261.14 -663.57 -278.27c-894.79,-368.21 -1661.07,-920.45 -2294.73,-1665.38 -637.86,-736.37 -954.67,-1836.59 -954.67,-3300.75 0,-1117.41 278.28,-2097.78 830.57,-2932.6 535.1,-830.51 1250.07,-1464.12 2144.82,-1909.38 869.09,-432.39 1798.1,-650.74 2795.61,-650.74 920.44,0 1823.76,175.56 2709.93,526.58 903.31,368.21 1691.04,877.66 2367.48,1532.66l-2144.87 3056.75z"/>
   <path class="fil2" d="M33514.77 16963.31c1018.9,42.84 1528.35,753.5 1528.35,2136.3l0 7586.19 4015.73 0 0 -7586.19c0,-3656.08 -1849.46,-5574.03 -5544.08,-5758.11l-226.92 0c-3694.61,184.08 -5544.07,2102.03 -5544.07,5758.11l0 7586.19 4015.72 0 0 -7586.19c0,-1382.8 509.45,-2093.46 1528.35,-2136.3l226.92 0z"/>
   <g>
    <path class="fil2" d="M18026.65 19213.77l-3113.17 3113.17c-18.67,18.67 -49.02,18.67 -67.68,0l-3113.18 -3113.17c-8.66,-8.67 -14.02,-20.63 -14.02,-33.84 0,-26.42 21.44,-47.87 47.86,-47.87l979.84 0c210.93,-1626.99 997.84,-3072.11 2147.98,-4120.87 1149.33,-1048.1 2661.74,-1700.71 4324.87,-1744.12 63.32,-1.63 122.48,-2.49 177.19,-2.49 1440.91,0 2775.99,457.47 3869.31,1235.91 1122.29,799.07 1989.99,1936.67 2456.17,3264.9 7.95,17.62 4.69,39.06 -9.76,53.51 -18.67,18.67 -49.01,18.67 -67.68,0l-2083.51 -2083.5 -1700.75 1700.75c-18.19,18.14 -47.72,18.66 -66.58,0.95 -319.58,-301.29 -695.11,-543.05 -1108.98,-707.6 -398.45,-158.37 -833.09,-245.48 -1288.22,-245.48l-87.21 0.86 -86.63 3.25c-782.6,38.39 -1498.05,335.28 -2063.64,807.35 -559.66,467.19 -972.72,1106.2 -1159.28,1836.58l1993.24 0c12.25,0 24.5,4.7 33.83,14.03 18.67,18.66 18.67,49.01 0,67.68z"/>
    <path class="fil2" d="M20413.85 20813.53l3113.18 -3113.18c18.67,-18.67 49.01,-18.67 67.68,0l3113.18 3113.18c8.66,8.66 14.02,20.63 14.02,33.84 0,26.42 -21.44,47.86 -47.86,47.86l-979.85 0c-210.93,1626.99 -997.84,3072.11 -2147.98,4120.88 -1149.32,1048.09 -2661.73,1700.7 -4324.87,1744.11 -63.27,1.63 -122.43,2.49 -177.18,2.49 -1440.91,0 -2775.99,-457.47 -3869.32,-1235.91 -1122.28,-799.06 -1989.98,-1936.66 -2456.16,-3264.9 -7.95,-17.61 -4.69,-39.06 9.76,-53.51 18.67,-18.67 49.01,-18.67 67.68,0l2083.51 2083.51 1700.75 -1700.75c18.19,-18.14 47.72,-18.67 66.58,-0.96 319.57,301.3 695.1,543.05 1108.97,707.6 398.46,158.38 833.1,245.49 1288.23,245.49l87.2 -0.86 86.63 -3.26c782.61,-38.38 1498.06,-335.28 2063.65,-807.34 559.66,-467.19 972.71,-1106.21 1159.28,-1836.59l-1993.24 0c-12.25,-0.05 -24.5,-4.69 -33.84,-14.02 -18.66,-18.67 -18.66,-49.02 0,-67.68z"/>
   </g>
  </g>
 </g>
</svg>

