<?xml version="1.0" encoding="UTF-8"?>
<!DOCTYPE svg PUBLIC "-//W3C//DTD SVG 1.1//EN" "http://www.w3.org/Graphics/SVG/1.1/DTD/svg11.dtd">
<!-- Creator: CorelDRAW 2019 (64-Bit) -->
<svg xmlns="http://www.w3.org/2000/svg" xml:space="preserve" width="297mm" height="210mm" version="1.1" style="shape-rendering:geometricPrecision; text-rendering:geometricPrecision; image-rendering:optimizeQuality; fill-rule:evenodd; clip-rule:evenodd"
viewBox="0 0 29700 21000"
 xmlns:xlink="http://www.w3.org/1999/xlink">
 <defs>
  <style type="text/css">
   <![CDATA[
    .fil0 {fill:#FFA901}
    .fil2 {fill:#333333;fill-rule:nonzero}
    .fil1 {fill:white;fill-rule:nonzero}
   ]]>
  </style>
 </defs>
 <g id="Layer_x0020_1">
  <metadata id="CorelCorpID_0Corel-Layer"/>
  <rect class="fil0" x="-0.53" y="7.13" width="29700" height="21000"/>
  <path class="fil1" d="M21747.23 9860.27c-67.3,-56.07 -141,-98.53 -221.11,-126.58 -82.51,-28.03 -170.63,-42.45 -262.75,-42.45 -172.23,0 -317.23,56.08 -436.58,166.63 -120.16,111.35 -180.25,249.13 -180.25,413.35 0,128.17 25.64,243.53 76.91,345.26 50.46,101.74 124.97,181.85 223.5,241.13 95.33,61.68 205.07,92.12 330.84,92.12 184.25,0 342.07,-59.28 474.24,-176.23l410.15 520.7c-59.28,62.48 -142.59,118.56 -248.34,166.62 -108.14,48.87 -219.49,84.91 -333.24,108.15 -114.55,23.23 -220.3,35.25 -317.23,35.25 -272.37,0 -512.69,-56.88 -720.16,-171.44 -208.28,-115.35 -367.7,-267.56 -479.05,-455.01 -111.35,-190.66 -166.62,-394.93 -166.62,-612.82 0,-198.67 33.64,-378.91 100.93,-539.93 68.9,-164.22 163.42,-305.21 283.58,-422.17 119.37,-114.55 264.36,-204.27 434.19,-269.96 169.02,-64.09 351.67,-96.13 547.13,-96.13 159.42,0 315.63,24.83 467.03,75.3 153.81,51.27 288.39,124.17 406.15,217.89l-389.32 530.32z"/>
  <path class="fil1" d="M18743.19 9719.27c190.65,8.02 285.98,141 285.98,399.74l0 1419.51 751.41 0 0 -1419.51c0,-684.11 -346.07,-1043 -1037.39,-1077.44l-42.46 0c-691.33,34.44 -1037.4,393.33 -1037.4,1077.44l0 1419.51 751.41 0 0 -1419.51c0,-258.74 95.33,-391.72 285.99,-399.74l42.46 0z"/>
  <path class="fil1" d="M16623.53 11815.69l-2.4 0 0 23.23c-1.61,4.81 -2.41,8.82 -2.41,12.02 -1.6,21.63 -5.61,39.26 -12.01,53.68l-4.01 16.82 -4.8 16.02 -4.81 12.02 -2.4 6.41c-36.05,86.51 -89.72,153.8 -161.82,201.87 -76.9,53.67 -161.02,80.11 -253.95,80.11 -118.55,0 -221.09,-40.86 -306.81,-121.77 -86.51,-81.71 -132.98,-181.85 -138.58,-300.41l-678.52 396.54c31.24,106.55 112.96,226.71 244.33,361.29 201.88,200.26 470.23,303.61 805.09,310.01l124.16 0c149.8,0 299.61,-27.24 447.8,-80.1 165.02,-59.28 294,-136.19 387.72,-229.91 206.69,-209.88 310.02,-459.83 310.02,-751.41l0 -2684.42 -751.41 2.41 0 1346.61c0,140.99 -32.84,248.33 -98.53,322.03 -68.89,73.7 -160.22,110.55 -274.77,110.55 -118.56,0 -210.68,-36.05 -276.37,-108.14 -66.49,-73.7 -99.34,-181.85 -99.34,-324.44l0 -1349.02 -750.6 0 0 1401.09c0,783.45 370.09,1136.73 1110.29,1058.23 120.16,-10.42 251.54,-44.86 394.13,-103.35l0 322.03z"/>
  <path class="fil1" d="M14459.02 9088.03c-96.93,-92.13 -181.84,-157.01 -255.54,-194.66 -78.51,-40.86 -169.03,-60.89 -272.37,-60.89 -76.1,0 -148.2,24.04 -215.49,72.9 -70.49,48.07 -105.74,112.15 -105.74,192.26 0,112.95 76.9,201.87 229.91,267.56 156.2,67.3 316.43,132.18 481.45,194.67 165.82,65.68 309.21,169.82 431.77,312.42 120.17,144.19 180.25,354.87 180.25,633.65 0,356.47 -107.34,630.44 -321.23,821.1 -213.09,193.06 -484.65,289.19 -814.7,289.19 -190.66,0 -375.71,-32.85 -553.55,-98.54 -180.23,-65.68 -338.05,-164.21 -474.23,-296.39l441.39 -628.85c140.99,178.64 326.04,267.56 555.95,267.56 92.12,0 181.05,-25.63 265.15,-76.9 83.32,-50.47 124.18,-124.17 124.18,-221.1 0,-113.75 -76.91,-205.07 -232.32,-272.37 -68.89,-29.63 -148.19,-63.28 -238.72,-100.93l-122.56 -48.86 -124.17 -52.07c-167.43,-68.9 -310.82,-172.24 -429.38,-311.63 -119.36,-137.78 -178.64,-343.65 -178.64,-617.63 0,-209.08 52.07,-392.53 155.41,-548.74 100.13,-155.4 233.92,-273.96 401.34,-357.27 162.62,-80.91 336.46,-121.77 523.11,-121.77 172.23,0 341.25,32.85 507.07,98.53 169.03,68.9 316.43,164.23 443,286.79l-401.34 571.97z"/>
  <path class="fil2" d="M11615.2 9719.27c190.65,8.02 285.98,141 285.98,399.74l0 1419.51 751.41 0 0 -1419.51c0,-684.11 -346.06,-1043 -1037.39,-1077.44l-42.46 0c-691.33,34.44 -1037.4,393.33 -1037.4,1077.44l0 1419.51 751.42 0 0 -1419.51c0,-258.74 95.32,-391.72 285.98,-399.74l42.46 0z"/>
  <g id="_2603521521712">
   <path class="fil2" d="M8717.1 10140.37l-582.53 582.54c-3.5,3.49 -9.17,3.49 -12.67,0l-582.53 -582.54c-1.62,-1.62 -2.62,-3.86 -2.62,-6.33 0,-4.94 4.01,-8.95 8.95,-8.95l183.35 0c39.47,-304.44 186.71,-574.85 401.93,-771.09 215.05,-196.12 498.05,-318.23 809.25,-326.36 11.85,-0.3 22.92,-0.46 33.16,-0.46 269.62,0 519.44,85.6 724.02,231.26 210,149.52 372.36,362.38 459.59,610.92 1.49,3.29 0.88,7.31 -1.83,10.01 -3.49,3.49 -9.17,3.49 -12.66,0l-389.86 -389.86 -318.24 318.24c-3.41,3.4 -8.93,3.49 -12.46,0.18 -59.8,-56.38 -130.07,-101.61 -207.51,-132.4 -74.56,-29.64 -155.89,-45.94 -241.05,-45.94l-16.32 0.16 -16.21 0.61c-146.44,7.18 -280.31,62.74 -386.14,151.07 -104.73,87.42 -182.01,206.99 -216.93,343.66l372.98 0c2.29,0 4.58,0.87 6.33,2.62 3.49,3.49 3.49,9.17 0,12.66z"/>
   <path class="fil2" d="M9163.78 10439.72l582.54 -582.53c3.49,-3.5 9.17,-3.5 12.66,0l582.53 582.53c1.62,1.62 2.62,3.86 2.62,6.33 0,4.94 -4.01,8.96 -8.95,8.96l-183.35 0c-39.47,304.44 -186.71,574.84 -401.92,771.09 -215.06,196.11 -498.06,318.23 -809.26,326.35 -11.84,0.31 -22.91,0.47 -33.16,0.47 -269.62,0 -519.43,-85.6 -724.02,-231.26 -209.99,-149.52 -372.36,-362.39 -459.59,-610.93 -1.48,-3.29 -0.88,-7.3 1.83,-10.01 3.49,-3.49 9.17,-3.49 12.66,0l389.86 389.86 318.25 -318.24c3.4,-3.39 8.92,-3.49 12.45,-0.18 59.8,56.38 130.07,101.62 207.51,132.41 74.56,29.63 155.89,45.93 241.05,45.93l16.32 -0.16 16.21 -0.61c146.44,-7.18 280.31,-62.73 386.14,-151.07 104.73,-87.41 182.02,-206.99 216.93,-343.65l-372.97 0c-2.3,-0.01 -4.59,-0.88 -6.34,-2.63 -3.49,-3.49 -3.49,-9.17 0,-12.66z"/>
  </g>
 </g>
</svg>
